<svg width="135" height="183" viewBox="0 0 135 183" fill="none" xmlns="http://www.w3.org/2000/svg">
<g opacity="0.8" clip-path="url(#clip0_2234_9590)">
<path d="M40.0171 176.548C41.4892 176.556 42.5875 177.67 42.5797 179.147C42.5719 180.624 41.4619 181.725 39.9898 181.718C38.5177 181.71 37.4194 180.596 37.4272 179.119C37.435 177.642 38.6677 176.541 40.0171 176.548Z" fill="#FFCF2D"/>
<path d="M40.1338 154.516C41.6059 154.524 42.7042 155.637 42.6964 157.114C42.6886 158.591 41.5786 159.693 40.1065 159.685C38.6344 159.678 37.5361 158.564 37.5439 157.087C37.5511 155.733 38.7844 154.509 40.1338 154.516Z" fill="#FFCF2D"/>
<path d="M40.2495 132.607C41.7217 132.615 42.8199 133.728 42.8121 135.205C42.8043 136.682 41.6943 137.784 40.2222 137.776C38.7501 137.769 37.6519 136.655 37.6597 135.178C37.6675 133.701 38.9001 132.6 40.2495 132.607Z" fill="#FFCF2D"/>
<path d="M40.3657 110.575C41.8379 110.582 42.9361 111.696 42.9283 113.173C42.9205 114.65 41.8106 115.752 40.3384 115.744C38.8663 115.736 37.7681 114.623 37.7759 113.146C37.7837 111.669 39.0163 110.567 40.3657 110.575Z" fill="#FFCF2D"/>
<path d="M40.4824 88.5423C41.9546 88.5501 43.0528 89.6637 43.045 91.1407C43.0372 92.6177 41.9273 93.7196 40.4551 93.7119C38.983 93.7041 37.8848 92.5905 37.8926 91.1135C37.8997 89.7595 39.133 88.5352 40.4824 88.5423Z" fill="#FFCF2D"/>
<path d="M40.5987 66.5101C42.0708 66.5178 43.169 67.6314 43.1612 69.1085C43.1534 70.5855 42.0435 71.6874 40.5713 71.6796C39.0992 71.6719 38.001 70.5583 38.0088 69.0812C38.0166 67.6042 39.2492 66.5029 40.5987 66.5101Z" fill="#FFCF2D"/>
<path d="M40.7149 44.6019C42.187 44.6096 43.2852 45.7232 43.2774 47.2003C43.2696 48.6773 42.1597 49.7792 40.6876 49.7714C39.2154 49.7636 38.1172 48.65 38.125 47.173C38.1328 45.696 39.3654 44.5947 40.7149 44.6019Z" fill="#FFCF2D"/>
<path d="M40.8311 22.5687C42.3032 22.5764 43.4015 23.69 43.3936 25.1671C43.3858 26.6441 42.2759 27.746 40.8038 27.7382C39.3316 27.7304 38.2334 26.6168 38.2412 25.1398C38.249 23.6628 39.4816 22.5615 40.8311 22.5687Z" fill="#FFCF2D"/>
<path d="M40.9473 0.536454C42.4194 0.544234 43.5177 1.65782 43.5099 3.13483C43.5021 4.61185 42.3921 5.71378 40.92 5.706C39.4478 5.69822 38.3496 4.58461 38.3574 3.1076C38.3646 1.75367 39.5978 0.529322 40.9473 0.536454Z" fill="#FFCF2D"/>
<path d="M58.2959 176.645C59.7681 176.653 60.8663 177.766 60.8585 179.243C60.8507 180.72 59.7407 181.822 58.2686 181.814C56.7965 181.807 55.6982 180.693 55.706 179.216C55.7138 177.739 56.8238 176.637 58.2959 176.645Z" fill="#FFCF2D"/>
<path d="M58.4126 154.613C59.8848 154.62 60.983 155.734 60.9752 157.211C60.9674 158.688 59.8574 159.79 58.3853 159.782C56.9132 159.774 55.8149 158.661 55.8227 157.184C55.8299 155.83 56.9405 154.605 58.4126 154.613Z" fill="#FFCF2D"/>
<path d="M58.5284 132.703C60.0005 132.711 61.0987 133.825 61.0909 135.302C61.0831 136.779 59.9732 137.881 58.501 137.873C57.0289 137.865 55.9307 136.752 55.9385 135.275C55.9463 133.798 57.0562 132.696 58.5284 132.703Z" fill="#FFCF2D"/>
<path d="M58.6446 110.671C60.1167 110.679 61.2149 111.793 61.2071 113.27C61.1993 114.747 60.0894 115.849 58.6172 115.841C57.1451 115.833 56.0469 114.719 56.0547 113.242C56.0625 111.765 57.1724 110.663 58.6446 110.671Z" fill="#FFCF2D"/>
<path d="M58.7613 88.639C60.2334 88.6468 61.3316 89.7603 61.3238 91.2374C61.316 92.7144 60.2061 93.8163 58.7339 93.8085C57.2618 93.8008 56.1636 92.6872 56.1714 91.2101C56.1785 89.8562 57.2891 88.6312 58.7613 88.639Z" fill="#FFCF2D"/>
<path d="M58.8775 66.6067C60.3496 66.6145 61.4478 67.7281 61.44 69.2051C61.4322 70.6822 60.3223 71.7841 58.8502 71.7763C57.378 71.7685 56.2798 70.6549 56.2876 69.1779C56.2954 67.7009 57.4053 66.599 58.8775 66.6067Z" fill="#FFCF2D"/>
<path d="M58.9932 44.6985C60.4653 44.7063 61.5636 45.8199 61.5558 47.2969C61.548 48.774 60.438 49.8759 58.9659 49.8681C57.4937 49.8603 56.3955 48.7467 56.4033 47.2697C56.4111 45.7927 57.5211 44.6908 58.9932 44.6985Z" fill="#FFCF2D"/>
<path d="M59.1099 22.6653C60.582 22.6731 61.6803 23.7867 61.6725 25.2637C61.6647 26.7408 60.5547 27.8427 59.0826 27.8349C57.6104 27.8271 56.5122 26.7135 56.52 25.2365C56.5278 23.7595 57.6378 22.6575 59.1099 22.6653Z" fill="#FFCF2D"/>
<path d="M59.2261 0.633118C60.6982 0.640898 61.7965 1.75449 61.7887 3.2315C61.7809 4.70852 60.6709 5.81046 59.1988 5.80268C57.7267 5.7949 56.6284 4.68129 56.6362 3.20427C56.6434 1.85034 57.754 0.625338 59.2261 0.633118Z" fill="#FFCF2D"/>
<path d="M3.58206 176.356C5.05419 176.364 6.15243 177.477 6.14463 178.954C6.13682 180.431 5.02687 181.533 3.55474 181.525C2.08261 181.518 0.98437 180.404 0.992176 178.927C0.999982 177.45 2.10993 176.348 3.58206 176.356Z" fill="#FFCF2D"/>
<path d="M3.69827 154.324C5.1704 154.331 6.26864 155.445 6.26084 156.922C6.25303 158.399 5.14308 159.501 3.67095 159.493C2.19882 159.485 1.10058 158.372 1.10839 156.895C1.11554 155.541 2.22614 154.316 3.69827 154.324Z" fill="#FFCF2D"/>
<path d="M3.81448 132.414C5.28661 132.422 6.38485 133.536 6.37705 135.013C6.36924 136.49 5.25929 137.592 3.78716 137.584C2.31503 137.576 1.21744 136.339 1.2246 134.986C1.2324 133.509 2.34235 132.407 3.81448 132.414Z" fill="#FFCF2D"/>
<path d="M3.93069 110.382C5.40282 110.39 6.50106 111.504 6.49326 112.981C6.48545 114.458 5.3755 115.559 3.90337 115.552C2.43124 115.544 1.33365 114.307 1.34081 112.953C1.34796 111.599 2.45857 110.374 3.93069 110.382Z" fill="#FFCF2D"/>
<path d="M4.04739 88.3499C5.51952 88.3577 6.61776 89.4713 6.60996 90.9483C6.60215 92.4253 5.4922 93.5273 4.02007 93.5195C2.54794 93.5117 1.4497 92.3981 1.45751 90.9211C1.46466 89.5671 2.57527 88.3421 4.04739 88.3499Z" fill="#FFCF2D"/>
<path d="M4.1636 66.3177C5.63573 66.3255 6.73397 67.4391 6.72617 68.9161C6.71836 70.3931 5.60841 71.495 4.13628 71.4872C2.66415 71.4795 1.56591 70.3659 1.57372 68.8888C1.58153 67.4118 2.69148 66.3099 4.1636 66.3177Z" fill="#FFCF2D"/>
<path d="M4.27933 44.4085C5.75146 44.4163 6.8497 45.5299 6.84189 47.0069C6.83409 48.4839 5.72413 49.5858 4.25201 49.5781C2.77988 49.5703 1.68164 48.4567 1.68944 46.9797C1.69725 45.5027 2.8072 44.4007 4.27933 44.4085Z" fill="#FFCF2D"/>
<path d="M4.39603 22.3763C5.86815 22.384 6.9664 23.4977 6.95859 24.9747C6.95078 26.4517 5.84083 27.5536 4.36871 27.5458C2.89658 27.5381 1.79834 26.4245 1.80614 24.9474C1.81395 23.4704 2.9239 22.3685 4.39603 22.3763Z" fill="#FFCF2D"/>
<path d="M4.51224 0.344071C5.98437 0.351851 7.08261 1.46544 7.0748 2.94245C7.067 4.41946 5.95704 5.5214 4.48492 5.51362C3.01279 5.50584 1.91455 4.39223 1.92235 2.91522C1.92951 1.56129 3.04011 0.336291 4.51224 0.344071Z" fill="#FFCF2D"/>
<path d="M21.8609 176.452C23.333 176.46 24.4312 177.574 24.4234 179.051C24.4156 180.528 23.183 181.629 21.8335 181.622C20.3614 181.614 19.2632 180.501 19.271 179.024C19.2788 177.547 20.3887 176.445 21.8609 176.452Z" fill="#FFCF2D"/>
<path d="M21.9776 154.42C23.4497 154.428 24.5479 155.542 24.5401 157.019C24.5323 158.496 23.4224 159.598 21.9502 159.59C20.4781 159.582 19.3799 158.468 19.3877 156.991C19.3948 155.637 20.5054 154.412 21.9776 154.42Z" fill="#FFCF2D"/>
<path d="M22.0933 132.511C23.5654 132.519 24.6637 133.632 24.6559 135.109C24.648 136.586 23.5381 137.688 22.066 137.681C20.5938 137.673 19.4956 136.559 19.5034 135.082C19.5112 133.605 20.6212 132.503 22.0933 132.511Z" fill="#FFCF2D"/>
<path d="M22.21 110.479C23.6821 110.487 24.7804 111.6 24.7726 113.077C24.7647 114.554 23.6548 115.656 22.1827 115.648C20.7105 115.641 19.6123 114.527 19.6201 113.05C19.6279 111.573 20.7379 110.471 22.21 110.479Z" fill="#FFCF2D"/>
<path d="M22.3262 88.4466C23.7983 88.4544 24.8966 89.568 24.8888 91.045C24.881 92.522 23.771 93.6239 22.2989 93.6162C20.8268 93.6084 19.7285 92.4948 19.7363 91.0178C19.7435 89.6638 20.8541 88.4388 22.3262 88.4466Z" fill="#FFCF2D"/>
<path d="M22.4424 66.4144C23.9145 66.4221 25.0128 67.5357 25.005 69.0128C24.9972 70.4898 23.8872 71.5917 22.4151 71.5839C20.943 71.5761 19.8447 70.4625 19.8525 68.9855C19.8603 67.5085 20.9703 66.4066 22.4424 66.4144Z" fill="#FFCF2D"/>
<path d="M22.5586 44.5052C24.0308 44.513 25.129 45.6266 25.1212 47.1036C25.1134 48.5806 24.0034 49.6825 22.5313 49.6747C21.0592 49.667 19.9609 48.5534 19.9687 47.0763C19.9765 45.5993 21.0865 44.4974 22.5586 44.5052Z" fill="#FFCF2D"/>
<path d="M22.6748 22.4729C24.147 22.4807 25.2452 23.5943 25.2374 25.0714C25.2296 26.5484 24.1196 27.6503 22.6475 27.6425C21.1754 27.6347 20.0771 26.5211 20.0849 25.0441C20.0928 23.5671 21.2027 22.4652 22.6748 22.4729Z" fill="#FFCF2D"/>
<path d="M22.7915 0.440735C24.2637 0.448516 25.3619 1.5621 25.3541 3.03912C25.3463 4.51614 24.2363 5.61808 22.7642 5.6103C21.2921 5.60251 20.1938 4.48891 20.2016 3.01189C20.2088 1.65796 21.3194 0.432955 22.7915 0.440735Z" fill="#FFCF2D"/>
<path d="M76.4527 176.741C77.9248 176.748 79.023 177.862 79.0152 179.339C79.0074 180.816 77.8975 181.918 76.4253 181.91C74.9532 181.902 73.855 180.789 73.8628 179.312C73.8706 177.835 75.1032 176.733 76.4527 176.741Z" fill="#FFCF2D"/>
<path d="M76.5689 154.708C78.041 154.716 79.1392 155.83 79.1314 157.307C79.1236 158.784 78.0137 159.886 76.5416 159.878C75.0694 159.87 73.9712 158.756 73.979 157.279C73.9861 155.926 75.2194 154.701 76.5689 154.708Z" fill="#FFCF2D"/>
<path d="M76.6846 132.8C78.1567 132.808 79.255 133.921 79.2472 135.399C79.2394 136.876 78.1294 137.977 76.6573 137.97C75.1851 137.962 74.0869 136.848 74.0947 135.371C74.1025 133.894 75.3351 132.793 76.6846 132.8Z" fill="#FFCF2D"/>
<path d="M76.8013 110.768C78.2734 110.776 79.3717 111.889 79.3639 113.366C79.356 114.843 78.2461 115.945 76.774 115.937C75.3018 115.93 74.2036 114.816 74.2114 113.339C74.2192 111.862 75.4518 110.761 76.8013 110.768Z" fill="#FFCF2D"/>
<path d="M76.9175 88.7347C78.3896 88.7425 79.4879 89.8561 79.4801 91.3331C79.4723 92.8101 78.3623 93.912 76.8902 93.9042C75.4181 93.8965 74.3198 92.7829 74.3276 91.3058C74.3348 89.9519 75.5681 88.7275 76.9175 88.7347Z" fill="#FFCF2D"/>
<path d="M77.0342 66.7025C78.5063 66.7102 79.6046 67.8238 79.5968 69.3008C79.589 70.7779 78.479 71.8798 77.0069 71.872C75.5348 71.8642 74.4365 70.7506 74.4443 69.2736C74.4521 67.7966 75.6848 66.6953 77.0342 66.7025Z" fill="#FFCF2D"/>
<path d="M77.1499 44.7942C78.6221 44.802 79.7203 45.9156 79.7125 47.3926C79.7047 48.8697 78.5947 49.9716 77.1226 49.9638C75.6505 49.956 74.5522 48.8424 74.56 47.3654C74.5679 45.8884 75.8005 44.7871 77.1499 44.7942Z" fill="#FFCF2D"/>
<path d="M77.2661 22.762C78.7383 22.7698 79.8365 23.8834 79.8287 25.3604C79.8209 26.8374 78.711 27.9394 77.2388 27.9316C75.7667 27.9238 74.6685 26.8102 74.6763 25.3332C74.6841 23.8562 75.9167 22.7549 77.2661 22.762Z" fill="#FFCF2D"/>
<path d="M77.3828 0.729798C78.855 0.737578 79.9532 1.85117 79.9454 3.32818C79.9376 4.8052 78.8276 5.90714 77.3555 5.89936C75.8834 5.89158 74.7852 4.77797 74.793 3.30095C74.8001 1.94702 76.0334 0.722666 77.3828 0.729798Z" fill="#FFCF2D"/>
<path d="M94.7315 176.837C96.2036 176.845 97.3018 177.959 97.294 179.436C97.2862 180.913 96.1763 182.015 94.7041 182.007C93.232 181.999 92.1338 180.885 92.1416 179.408C92.1494 177.931 93.2593 176.829 94.7315 176.837Z" fill="#FFCF2D"/>
<path d="M94.8477 154.805C96.3198 154.813 97.418 155.926 97.4102 157.403C97.4024 158.88 96.2925 159.982 94.8204 159.975C93.3482 159.967 92.25 158.853 92.2578 157.376C92.265 156.022 93.3756 154.797 94.8477 154.805Z" fill="#FFCF2D"/>
<path d="M94.9634 132.897C96.4355 132.905 97.5338 134.018 97.526 135.495C97.5182 136.972 96.4082 138.074 94.9361 138.066C93.464 138.059 92.3657 136.945 92.3735 135.468C92.3813 133.991 93.4913 132.889 94.9634 132.897Z" fill="#FFCF2D"/>
<path d="M97.6427 113.463C97.6502 112.035 96.5029 110.872 95.0801 110.865C93.6573 110.857 92.4978 112.008 92.4902 113.436C92.4827 114.863 93.63 116.027 95.0528 116.034C96.4756 116.042 97.6351 114.89 97.6427 113.463Z" fill="#FFCF2D"/>
<path d="M95.1963 88.8314C96.6684 88.8391 97.7667 89.9527 97.7589 91.4298C97.7511 92.9068 96.6411 94.0087 95.169 94.0009C93.6969 93.9931 92.5986 92.8795 92.6064 91.4025C92.6136 90.0486 93.7242 88.8236 95.1963 88.8314Z" fill="#FFCF2D"/>
<path d="M95.313 66.7991C96.7851 66.8069 97.8834 67.9205 97.8756 69.3975C97.8678 70.8745 96.7578 71.9765 95.2857 71.9687C93.8136 71.9609 92.7153 70.8473 92.7231 69.3703C92.7309 67.8933 93.8409 66.7913 95.313 66.7991Z" fill="#FFCF2D"/>
<path d="M95.4287 44.8909C96.9009 44.8987 97.9991 46.0123 97.9913 47.4893C97.9835 48.9663 96.8735 50.0683 95.4014 50.0605C93.9293 50.0527 92.831 48.9391 92.8389 47.4621C92.8467 45.9851 93.9566 44.8831 95.4287 44.8909Z" fill="#FFCF2D"/>
<path d="M98.1075 25.4571C98.1151 24.0296 96.9678 22.8662 95.5449 22.8587C94.1221 22.8512 92.9626 24.0023 92.9551 25.4299C92.9475 26.8574 94.0948 28.0207 95.5176 28.0283C96.9404 28.0358 98.1 26.8846 98.1075 25.4571Z" fill="#FFCF2D"/>
<path d="M95.6616 0.826477C97.1338 0.834258 98.232 1.94785 98.2242 3.42486C98.2164 4.90188 97.1065 6.00382 95.6343 5.99604C94.1622 5.98826 93.064 4.87465 93.0718 3.39763C93.0789 2.0437 94.1895 0.818697 95.6616 0.826477Z" fill="#FFCF2D"/>
<path d="M113.01 176.934C114.482 176.942 115.581 178.055 115.573 179.532C115.565 181.009 114.455 182.111 112.983 182.103C111.511 182.096 110.413 180.982 110.42 179.505C110.428 178.028 111.538 176.926 113.01 176.934Z" fill="#FFCF2D"/>
<path d="M113.127 154.902C114.599 154.909 115.697 156.023 115.69 157.5C115.682 158.977 114.572 160.079 113.1 160.071C111.628 160.063 110.529 158.95 110.537 157.473C110.544 156.119 111.655 154.894 113.127 154.902Z" fill="#FFCF2D"/>
<path d="M113.243 132.992C114.715 133 115.813 134.114 115.805 135.591C115.797 137.068 114.688 138.17 113.215 138.162C111.743 138.154 110.645 137.041 110.653 135.564C110.661 134.087 111.771 132.985 113.243 132.992Z" fill="#FFCF2D"/>
<path d="M113.359 110.96C114.831 110.968 115.929 112.082 115.921 113.559C115.914 115.036 114.804 116.138 113.332 116.13C111.859 116.122 110.761 115.008 110.769 113.531C110.777 112.054 111.887 110.952 113.359 110.96Z" fill="#FFCF2D"/>
<path d="M113.476 88.928C114.948 88.9358 116.046 90.0494 116.038 91.5264C116.03 93.0035 114.92 94.1054 113.448 94.0976C111.976 94.0898 110.878 92.9762 110.886 91.4992C110.893 90.1453 112.003 88.9203 113.476 88.928Z" fill="#FFCF2D"/>
<path d="M113.592 66.8958C115.064 66.9036 116.162 68.0172 116.154 69.4942C116.147 70.9712 115.037 72.0732 113.565 72.0654C112.092 72.0576 110.994 70.944 111.002 69.467C111.01 67.99 112.12 66.888 113.592 66.8958Z" fill="#FFCF2D"/>
<path d="M113.708 44.9876C115.18 44.9954 116.278 46.109 116.27 47.586C116.262 49.063 115.152 50.165 113.68 50.1572C112.208 50.1494 111.11 49.0358 111.118 47.5588C111.125 46.0818 112.235 44.9798 113.708 44.9876Z" fill="#FFCF2D"/>
<path d="M113.824 22.9554C115.296 22.9631 116.395 24.0768 116.387 25.5538C116.379 27.0308 115.269 28.1327 113.797 28.1249C112.325 28.1172 111.227 27.0036 111.234 25.5265C111.242 24.0495 112.352 22.9476 113.824 22.9554Z" fill="#FFCF2D"/>
<path d="M113.94 0.922181C115.413 0.929961 116.511 2.04355 116.503 3.52057C116.495 4.99758 115.385 6.09952 113.913 6.09174C112.441 6.08396 111.343 4.97035 111.351 3.49334C111.358 2.1394 112.468 0.9144 113.94 0.922181Z" fill="#FFCF2D"/>
<path d="M131.167 177.03C132.639 177.037 133.737 178.151 133.729 179.628C133.721 181.105 132.611 182.207 131.139 182.199C129.667 182.191 128.569 181.078 128.577 179.601C128.584 178.124 129.817 177.022 131.167 177.03Z" fill="#FFCF2D"/>
<path d="M131.283 154.997C132.755 155.005 133.853 156.119 133.845 157.596C133.838 159.073 132.728 160.175 131.255 160.167C129.783 160.159 128.685 159.046 128.693 157.569C128.7 156.215 129.933 154.99 131.283 154.997Z" fill="#FFCF2D"/>
<path d="M131.399 133.089C132.871 133.097 133.969 134.211 133.962 135.688C133.954 137.165 132.844 138.267 131.372 138.259C129.9 138.251 128.801 137.137 128.809 135.66C128.817 134.183 130.05 133.082 131.399 133.089Z" fill="#FFCF2D"/>
<path d="M131.515 111.057C132.987 111.065 134.086 112.178 134.078 113.655C134.07 115.132 132.96 116.234 131.488 116.227C130.016 116.219 128.917 115.105 128.925 113.628C128.933 112.151 130.166 111.05 131.515 111.057Z" fill="#FFCF2D"/>
<path d="M131.632 89.0247C133.104 89.0325 134.202 90.1461 134.194 91.6231C134.187 93.1001 133.077 94.2021 131.605 94.1943C130.132 94.1865 129.034 93.0729 129.042 91.5959C129.049 90.242 130.282 89.0176 131.632 89.0247Z" fill="#FFCF2D"/>
<path d="M131.748 66.9915C133.22 66.9993 134.318 68.1129 134.311 69.5899C134.303 71.0669 133.193 72.1689 131.721 72.1611C130.249 72.1533 129.15 71.0397 129.158 69.5627C129.166 68.0857 130.399 66.9844 131.748 66.9915Z" fill="#FFCF2D"/>
<path d="M131.864 45.0833C133.336 45.0911 134.434 46.2047 134.426 47.6817C134.419 49.1587 133.309 50.2607 131.836 50.2529C130.364 50.2451 129.266 49.1315 129.274 47.6545C129.282 46.1774 130.514 45.0762 131.864 45.0833Z" fill="#FFCF2D"/>
<path d="M131.981 23.0511C133.453 23.0589 134.551 24.1725 134.543 25.6495C134.535 27.1265 133.425 28.2284 131.953 28.2206C130.481 28.2129 129.383 27.0993 129.391 25.6222C129.398 24.1452 130.631 23.0439 131.981 23.0511Z" fill="#FFCF2D"/>
<path d="M132.097 1.01886C133.569 1.02664 134.667 2.14023 134.659 3.61725C134.651 5.09426 133.542 6.1962 132.069 6.18842C130.597 6.18064 129.499 5.06703 129.507 3.59002C129.514 2.23608 130.747 1.01173 132.097 1.01886Z" fill="#FFCF2D"/>
</g>
<defs>
<clipPath id="clip0_2234_9590">
<rect width="181.184" height="132.739" fill="white" transform="translate(0.978516 181.512) rotate(-89.6972)"/>
</clipPath>
</defs>
</svg>
